<svg width="225" height="8" viewBox="0 0 225 8" fill="none" xmlns="http://www.w3.org/2000/svg">
<g id="arrows">
<path id="Arrow 1" d="M42.3536 4.35355C42.5488 4.15829 42.5488 3.84171 42.3536 3.64645L39.1716 0.464466C38.9763 0.269204 38.6597 0.269204 38.4645 0.464466C38.2692 0.659728 38.2692 0.976311 38.4645 1.17157L41.2929 4L38.4645 6.82843C38.2692 7.02369 38.2692 7.34027 38.4645 7.53553C38.6597 7.7308 38.9763 7.7308 39.1716 7.53553L42.3536 4.35355ZM0 4.5L42 4.5V3.5L0 3.5L0 4.5Z" fill="#3A3A3A"/>
<path id="Arrow 2" d="M133.354 4.35355C133.549 4.15829 133.549 3.84171 133.354 3.64645L130.172 0.464466C129.976 0.269204 129.66 0.269204 129.464 0.464466C129.269 0.659728 129.269 0.976311 129.464 1.17157L132.293 4L129.464 6.82843C129.269 7.02369 129.269 7.34027 129.464 7.53553C129.66 7.7308 129.976 7.7308 130.172 7.53553L133.354 4.35355ZM91 4.5H133V3.5H91V4.5Z" fill="#3A3A3A"/>
<path id="Arrow 3" d="M224.354 4.35355C224.549 4.15829 224.549 3.84171 224.354 3.64645L221.172 0.464466C220.976 0.269204 220.66 0.269204 220.464 0.464466C220.269 0.659728 220.269 0.976311 220.464 1.17157L223.293 4L220.464 6.82843C220.269 7.02369 220.269 7.34027 220.464 7.53553C220.66 7.7308 220.976 7.7308 221.172 7.53553L224.354 4.35355ZM182 4.5H224V3.5H182V4.5Z" fill="#3A3A3A"/>
</g>
</svg>
